<mxfile host="app.diagrams.net" agent="Mozilla/5.0 (Windows NT 10.0; Win64; x64) AppleWebKit/537.36 (KHTML, like Gecko) Chrome/127.0.0.0 Safari/537.36 OPR/113.0.0.0" version="24.7.17">
  <diagram name="PÃ¡gina-1" id="AopMpQJF8iIRznB7bOwr">
    <mxGraphModel grid="1" page="1" gridSize="10" guides="1" tooltips="1" connect="1" arrows="1" fold="1" pageScale="1" pageWidth="827" pageHeight="1169" math="0" shadow="0">
      <root>
        <mxCell id="0" />
        <mxCell id="1" parent="0" />
        <mxCell id="ZLKex6Dz4Ec29k2ysHHN-1" value="Centre" style="rounded=0;whiteSpace=wrap;html=1;" vertex="1" parent="1">
          <mxGeometry x="30" y="40" width="100" height="40" as="geometry" />
        </mxCell>
        <mxCell id="ZLKex6Dz4Ec29k2ysHHN-2" value="Curs" style="rounded=0;whiteSpace=wrap;html=1;" vertex="1" parent="1">
          <mxGeometry x="480" y="40" width="120" height="40" as="geometry" />
        </mxCell>
        <mxCell id="ZLKex6Dz4Ec29k2ysHHN-3" value="Projecte" style="rounded=0;whiteSpace=wrap;html=1;" vertex="1" parent="1">
          <mxGeometry x="480" y="170" width="120" height="40" as="geometry" />
        </mxCell>
        <mxCell id="ZLKex6Dz4Ec29k2ysHHN-4" value="Competencia" style="rounded=0;whiteSpace=wrap;html=1;" vertex="1" parent="1">
          <mxGeometry x="480" y="290" width="120" height="40" as="geometry" />
        </mxCell>
        <mxCell id="ZLKex6Dz4Ec29k2ysHHN-5" value="Assignatura" style="rounded=0;whiteSpace=wrap;html=1;" vertex="1" parent="1">
          <mxGeometry x="480" y="410" width="120" height="50" as="geometry" />
        </mxCell>
        <mxCell id="ZLKex6Dz4Ec29k2ysHHN-6" value="Criteri" style="rounded=0;whiteSpace=wrap;html=1;" vertex="1" parent="1">
          <mxGeometry x="170" y="420" width="120" height="50" as="geometry" />
        </mxCell>
        <mxCell id="ZLKex6Dz4Ec29k2ysHHN-7" value="Categoria" style="rounded=0;whiteSpace=wrap;html=1;" vertex="1" parent="1">
          <mxGeometry x="760" y="420" width="120" height="50" as="geometry" />
        </mxCell>
        <mxCell id="ZLKex6Dz4Ec29k2ysHHN-9" value="Avaluacio" style="rounded=0;whiteSpace=wrap;html=1;" vertex="1" parent="1">
          <mxGeometry x="170" y="585" width="120" height="50" as="geometry" />
        </mxCell>
        <mxCell id="ZLKex6Dz4Ec29k2ysHHN-10" value="Sabers" style="rounded=0;whiteSpace=wrap;html=1;" vertex="1" parent="1">
          <mxGeometry x="760" y="580" width="120" height="50" as="geometry" />
        </mxCell>
        <mxCell id="ZLKex6Dz4Ec29k2ysHHN-11" value="" style="rhombus;whiteSpace=wrap;html=1;" vertex="1" parent="1">
          <mxGeometry x="520" y="110" width="40" height="40" as="geometry" />
        </mxCell>
        <mxCell id="ZLKex6Dz4Ec29k2ysHHN-12" value="" style="endArrow=none;html=1;rounded=0;entryX=0.5;entryY=1;entryDx=0;entryDy=0;exitX=0.5;exitY=0;exitDx=0;exitDy=0;" edge="1" parent="1" source="ZLKex6Dz4Ec29k2ysHHN-11" target="ZLKex6Dz4Ec29k2ysHHN-2">
          <mxGeometry width="50" height="50" relative="1" as="geometry">
            <mxPoint x="440" y="160" as="sourcePoint" />
            <mxPoint x="490" y="110" as="targetPoint" />
          </mxGeometry>
        </mxCell>
        <mxCell id="ZLKex6Dz4Ec29k2ysHHN-13" value="" style="endArrow=none;html=1;rounded=0;entryX=0.5;entryY=1;entryDx=0;entryDy=0;exitX=0.5;exitY=0;exitDx=0;exitDy=0;" edge="1" parent="1" source="ZLKex6Dz4Ec29k2ysHHN-3" target="ZLKex6Dz4Ec29k2ysHHN-11">
          <mxGeometry width="50" height="50" relative="1" as="geometry">
            <mxPoint x="440" y="160" as="sourcePoint" />
            <mxPoint x="490" y="110" as="targetPoint" />
            <Array as="points">
              <mxPoint x="540" y="160" />
            </Array>
          </mxGeometry>
        </mxCell>
        <mxCell id="ZLKex6Dz4Ec29k2ysHHN-14" value="" style="rhombus;whiteSpace=wrap;html=1;" vertex="1" parent="1">
          <mxGeometry x="520" y="230" width="40" height="40" as="geometry" />
        </mxCell>
        <mxCell id="ZLKex6Dz4Ec29k2ysHHN-15" value="" style="endArrow=none;html=1;rounded=0;entryX=0.5;entryY=1;entryDx=0;entryDy=0;exitX=0.5;exitY=0;exitDx=0;exitDy=0;" edge="1" parent="1" source="ZLKex6Dz4Ec29k2ysHHN-14" target="ZLKex6Dz4Ec29k2ysHHN-3">
          <mxGeometry width="50" height="50" relative="1" as="geometry">
            <mxPoint x="550" y="180" as="sourcePoint" />
            <mxPoint x="550" y="150" as="targetPoint" />
            <Array as="points">
              <mxPoint x="540" y="230" />
            </Array>
          </mxGeometry>
        </mxCell>
        <mxCell id="ZLKex6Dz4Ec29k2ysHHN-16" value="" style="endArrow=none;html=1;rounded=0;entryX=0.5;entryY=1;entryDx=0;entryDy=0;exitX=0.5;exitY=0;exitDx=0;exitDy=0;" edge="1" parent="1" source="ZLKex6Dz4Ec29k2ysHHN-4" target="ZLKex6Dz4Ec29k2ysHHN-14">
          <mxGeometry width="50" height="50" relative="1" as="geometry">
            <mxPoint x="440" y="230" as="sourcePoint" />
            <mxPoint x="490" y="180" as="targetPoint" />
          </mxGeometry>
        </mxCell>
        <mxCell id="ZLKex6Dz4Ec29k2ysHHN-17" value="" style="rhombus;whiteSpace=wrap;html=1;" vertex="1" parent="1">
          <mxGeometry x="520" y="350" width="40" height="40" as="geometry" />
        </mxCell>
        <mxCell id="ZLKex6Dz4Ec29k2ysHHN-18" value="" style="endArrow=none;html=1;rounded=0;entryX=0.5;entryY=1;entryDx=0;entryDy=0;exitX=0.5;exitY=0;exitDx=0;exitDy=0;" edge="1" parent="1" source="ZLKex6Dz4Ec29k2ysHHN-17" target="ZLKex6Dz4Ec29k2ysHHN-4">
          <mxGeometry width="50" height="50" relative="1" as="geometry">
            <mxPoint x="440" y="440" as="sourcePoint" />
            <mxPoint x="490" y="390" as="targetPoint" />
          </mxGeometry>
        </mxCell>
        <mxCell id="ZLKex6Dz4Ec29k2ysHHN-19" value="" style="endArrow=none;html=1;rounded=0;entryX=0.5;entryY=1;entryDx=0;entryDy=0;exitX=0.5;exitY=0;exitDx=0;exitDy=0;" edge="1" parent="1" source="ZLKex6Dz4Ec29k2ysHHN-5" target="ZLKex6Dz4Ec29k2ysHHN-17">
          <mxGeometry width="50" height="50" relative="1" as="geometry">
            <mxPoint x="440" y="440" as="sourcePoint" />
            <mxPoint x="490" y="390" as="targetPoint" />
          </mxGeometry>
        </mxCell>
        <mxCell id="ZLKex6Dz4Ec29k2ysHHN-20" value="" style="rhombus;whiteSpace=wrap;html=1;" vertex="1" parent="1">
          <mxGeometry x="365" y="430" width="30" height="30" as="geometry" />
        </mxCell>
        <mxCell id="ZLKex6Dz4Ec29k2ysHHN-21" value="" style="endArrow=none;html=1;rounded=0;entryX=0;entryY=0.5;entryDx=0;entryDy=0;exitX=1;exitY=0.5;exitDx=0;exitDy=0;" edge="1" parent="1" source="ZLKex6Dz4Ec29k2ysHHN-20" target="ZLKex6Dz4Ec29k2ysHHN-5">
          <mxGeometry width="50" height="50" relative="1" as="geometry">
            <mxPoint x="440" y="510" as="sourcePoint" />
            <mxPoint x="490" y="460" as="targetPoint" />
          </mxGeometry>
        </mxCell>
        <mxCell id="ZLKex6Dz4Ec29k2ysHHN-22" value="" style="endArrow=none;html=1;rounded=0;entryX=0;entryY=0.5;entryDx=0;entryDy=0;exitX=1;exitY=0.5;exitDx=0;exitDy=0;" edge="1" parent="1" source="ZLKex6Dz4Ec29k2ysHHN-6" target="ZLKex6Dz4Ec29k2ysHHN-20">
          <mxGeometry width="50" height="50" relative="1" as="geometry">
            <mxPoint x="440" y="510" as="sourcePoint" />
            <mxPoint x="490" y="460" as="targetPoint" />
          </mxGeometry>
        </mxCell>
        <mxCell id="ZLKex6Dz4Ec29k2ysHHN-24" value="" style="endArrow=none;html=1;rounded=0;entryX=0.5;entryY=1;entryDx=0;entryDy=0;exitX=0.5;exitY=0;exitDx=0;exitDy=0;" edge="1" parent="1" source="ZLKex6Dz4Ec29k2ysHHN-25" target="ZLKex6Dz4Ec29k2ysHHN-6">
          <mxGeometry width="50" height="50" relative="1" as="geometry">
            <mxPoint x="290" y="590" as="sourcePoint" />
            <mxPoint x="340" y="540" as="targetPoint" />
          </mxGeometry>
        </mxCell>
        <mxCell id="ZLKex6Dz4Ec29k2ysHHN-25" value="" style="rhombus;whiteSpace=wrap;html=1;" vertex="1" parent="1">
          <mxGeometry x="215" y="520" width="30" height="30" as="geometry" />
        </mxCell>
        <mxCell id="ZLKex6Dz4Ec29k2ysHHN-26" value="" style="endArrow=none;html=1;rounded=0;entryX=0.5;entryY=1;entryDx=0;entryDy=0;exitX=0.5;exitY=0;exitDx=0;exitDy=0;" edge="1" parent="1" source="ZLKex6Dz4Ec29k2ysHHN-9" target="ZLKex6Dz4Ec29k2ysHHN-25">
          <mxGeometry width="50" height="50" relative="1" as="geometry">
            <mxPoint x="290" y="590" as="sourcePoint" />
            <mxPoint x="340" y="540" as="targetPoint" />
          </mxGeometry>
        </mxCell>
        <mxCell id="ZLKex6Dz4Ec29k2ysHHN-27" value="" style="rhombus;whiteSpace=wrap;html=1;" vertex="1" parent="1">
          <mxGeometry x="805" y="505" width="30" height="30" as="geometry" />
        </mxCell>
        <mxCell id="ZLKex6Dz4Ec29k2ysHHN-28" value="" style="endArrow=none;html=1;rounded=0;entryX=0.5;entryY=1;entryDx=0;entryDy=0;exitX=0.5;exitY=0;exitDx=0;exitDy=0;" edge="1" parent="1" source="ZLKex6Dz4Ec29k2ysHHN-27" target="ZLKex6Dz4Ec29k2ysHHN-7">
          <mxGeometry width="50" height="50" relative="1" as="geometry">
            <mxPoint x="540" y="590" as="sourcePoint" />
            <mxPoint x="590" y="540" as="targetPoint" />
          </mxGeometry>
        </mxCell>
        <mxCell id="ZLKex6Dz4Ec29k2ysHHN-29" value="" style="endArrow=none;html=1;rounded=0;entryX=0.5;entryY=1;entryDx=0;entryDy=0;exitX=0.5;exitY=0;exitDx=0;exitDy=0;" edge="1" parent="1" source="ZLKex6Dz4Ec29k2ysHHN-10" target="ZLKex6Dz4Ec29k2ysHHN-27">
          <mxGeometry width="50" height="50" relative="1" as="geometry">
            <mxPoint x="540" y="590" as="sourcePoint" />
            <mxPoint x="590" y="540" as="targetPoint" />
          </mxGeometry>
        </mxCell>
        <mxCell id="ZLKex6Dz4Ec29k2ysHHN-30" value="1" style="text;html=1;align=center;verticalAlign=middle;whiteSpace=wrap;rounded=0;" vertex="1" parent="1">
          <mxGeometry x="500" y="80" width="40" height="20" as="geometry" />
        </mxCell>
        <mxCell id="ZLKex6Dz4Ec29k2ysHHN-31" value="N" style="text;html=1;align=center;verticalAlign=middle;whiteSpace=wrap;rounded=0;" vertex="1" parent="1">
          <mxGeometry x="500" y="150" width="40" height="20" as="geometry" />
        </mxCell>
        <mxCell id="ZLKex6Dz4Ec29k2ysHHN-32" value="1" style="text;html=1;align=center;verticalAlign=middle;whiteSpace=wrap;rounded=0;" vertex="1" parent="1">
          <mxGeometry x="490" y="210" width="40" height="20" as="geometry" />
        </mxCell>
        <mxCell id="ZLKex6Dz4Ec29k2ysHHN-33" value="N" style="text;html=1;align=center;verticalAlign=middle;whiteSpace=wrap;rounded=0;" vertex="1" parent="1">
          <mxGeometry x="490" y="270" width="40" height="20" as="geometry" />
        </mxCell>
        <mxCell id="ZLKex6Dz4Ec29k2ysHHN-34" value="1" style="text;html=1;align=center;verticalAlign=middle;whiteSpace=wrap;rounded=0;" vertex="1" parent="1">
          <mxGeometry x="485" y="330" width="40" height="20" as="geometry" />
        </mxCell>
        <mxCell id="ZLKex6Dz4Ec29k2ysHHN-35" value="N" style="text;html=1;align=center;verticalAlign=middle;whiteSpace=wrap;rounded=0;" vertex="1" parent="1">
          <mxGeometry x="490" y="390" width="40" height="20" as="geometry" />
        </mxCell>
        <mxCell id="ZLKex6Dz4Ec29k2ysHHN-36" value="1" style="text;html=1;align=center;verticalAlign=middle;whiteSpace=wrap;rounded=0;" vertex="1" parent="1">
          <mxGeometry x="440" y="410" width="40" height="20" as="geometry" />
        </mxCell>
        <mxCell id="ZLKex6Dz4Ec29k2ysHHN-37" value="N" style="text;html=1;align=center;verticalAlign=middle;whiteSpace=wrap;rounded=0;" vertex="1" parent="1">
          <mxGeometry x="290" y="420" width="40" height="20" as="geometry" />
        </mxCell>
        <mxCell id="ZLKex6Dz4Ec29k2ysHHN-38" value="M" style="text;html=1;align=center;verticalAlign=middle;whiteSpace=wrap;rounded=0;" vertex="1" parent="1">
          <mxGeometry x="720" y="420" width="40" height="20" as="geometry" />
        </mxCell>
        <mxCell id="ZLKex6Dz4Ec29k2ysHHN-39" value="1" style="text;html=1;align=center;verticalAlign=middle;whiteSpace=wrap;rounded=0;" vertex="1" parent="1">
          <mxGeometry x="780" y="470" width="40" height="20" as="geometry" />
        </mxCell>
        <mxCell id="ZLKex6Dz4Ec29k2ysHHN-40" value="N" style="text;html=1;align=center;verticalAlign=middle;whiteSpace=wrap;rounded=0;" vertex="1" parent="1">
          <mxGeometry x="780" y="560" width="40" height="20" as="geometry" />
        </mxCell>
        <mxCell id="ZLKex6Dz4Ec29k2ysHHN-41" value="N" style="text;html=1;align=center;verticalAlign=middle;whiteSpace=wrap;rounded=0;" vertex="1" parent="1">
          <mxGeometry x="190" y="565" width="40" height="20" as="geometry" />
        </mxCell>
        <mxCell id="ZLKex6Dz4Ec29k2ysHHN-42" value="1" style="text;html=1;align=center;verticalAlign=middle;whiteSpace=wrap;rounded=0;" vertex="1" parent="1">
          <mxGeometry x="190" y="470" width="40" height="20" as="geometry" />
        </mxCell>
        <mxCell id="ZLKex6Dz4Ec29k2ysHHN-43" value="&lt;u&gt;Nom&lt;/u&gt;" style="ellipse;whiteSpace=wrap;html=1;" vertex="1" parent="1">
          <mxGeometry x="620" y="20" width="50" height="30" as="geometry" />
        </mxCell>
        <mxCell id="ZLKex6Dz4Ec29k2ysHHN-44" value="&lt;u&gt;Any&lt;/u&gt;" style="ellipse;whiteSpace=wrap;html=1;" vertex="1" parent="1">
          <mxGeometry x="630" y="75" width="50" height="30" as="geometry" />
        </mxCell>
        <mxCell id="ZLKex6Dz4Ec29k2ysHHN-45" value="&lt;u&gt;Titol&lt;/u&gt;" style="ellipse;whiteSpace=wrap;html=1;" vertex="1" parent="1">
          <mxGeometry x="630" y="145" width="50" height="30" as="geometry" />
        </mxCell>
        <mxCell id="ZLKex6Dz4Ec29k2ysHHN-46" value="Descripcio" style="ellipse;whiteSpace=wrap;html=1;" vertex="1" parent="1">
          <mxGeometry x="630" y="200" width="80" height="30" as="geometry" />
        </mxCell>
        <mxCell id="ZLKex6Dz4Ec29k2ysHHN-47" value="Link" style="ellipse;whiteSpace=wrap;html=1;" vertex="1" parent="1">
          <mxGeometry x="385" y="160" width="55" height="30" as="geometry" />
        </mxCell>
        <mxCell id="ZLKex6Dz4Ec29k2ysHHN-48" value="Data_Inici" style="ellipse;whiteSpace=wrap;html=1;" vertex="1" parent="1">
          <mxGeometry x="370" y="200" width="70" height="40" as="geometry" />
        </mxCell>
        <mxCell id="ZLKex6Dz4Ec29k2ysHHN-49" value="Data_Fi" style="ellipse;whiteSpace=wrap;html=1;" vertex="1" parent="1">
          <mxGeometry x="630" y="240" width="70" height="40" as="geometry" />
        </mxCell>
        <mxCell id="ZLKex6Dz4Ec29k2ysHHN-50" value="&lt;u&gt;Nom&lt;/u&gt;" style="ellipse;whiteSpace=wrap;html=1;" vertex="1" parent="1">
          <mxGeometry x="395" y="280" width="55" height="30" as="geometry" />
        </mxCell>
        <mxCell id="ZLKex6Dz4Ec29k2ysHHN-51" value="Usuari" style="rounded=0;whiteSpace=wrap;html=1;" vertex="1" parent="1">
          <mxGeometry x="245" y="40" width="120" height="40" as="geometry" />
        </mxCell>
        <mxCell id="ZLKex6Dz4Ec29k2ysHHN-52" value="&lt;u&gt;Correu&lt;/u&gt;" style="ellipse;whiteSpace=wrap;html=1;" vertex="1" parent="1">
          <mxGeometry x="270" y="-10" width="50" height="30" as="geometry" />
        </mxCell>
        <mxCell id="ZLKex6Dz4Ec29k2ysHHN-53" value="Nom" style="ellipse;whiteSpace=wrap;html=1;" vertex="1" parent="1">
          <mxGeometry x="345" y="-10" width="50" height="30" as="geometry" />
        </mxCell>
        <mxCell id="ZLKex6Dz4Ec29k2ysHHN-54" value="" style="rhombus;whiteSpace=wrap;html=1;" vertex="1" parent="1">
          <mxGeometry x="400" y="40" width="40" height="40" as="geometry" />
        </mxCell>
        <mxCell id="ZLKex6Dz4Ec29k2ysHHN-55" value="" style="endArrow=none;html=1;rounded=0;entryX=1;entryY=0.5;entryDx=0;entryDy=0;exitX=0;exitY=0.5;exitDx=0;exitDy=0;" edge="1" parent="1" source="ZLKex6Dz4Ec29k2ysHHN-54" target="ZLKex6Dz4Ec29k2ysHHN-51">
          <mxGeometry width="50" height="50" relative="1" as="geometry">
            <mxPoint x="440" y="110" as="sourcePoint" />
            <mxPoint x="490" y="60" as="targetPoint" />
          </mxGeometry>
        </mxCell>
        <mxCell id="ZLKex6Dz4Ec29k2ysHHN-56" value="" style="endArrow=none;html=1;rounded=0;entryX=1;entryY=0.5;entryDx=0;entryDy=0;exitX=0;exitY=0.5;exitDx=0;exitDy=0;" edge="1" parent="1" source="ZLKex6Dz4Ec29k2ysHHN-2" target="ZLKex6Dz4Ec29k2ysHHN-54">
          <mxGeometry width="50" height="50" relative="1" as="geometry">
            <mxPoint x="440" y="110" as="sourcePoint" />
            <mxPoint x="490" y="60" as="targetPoint" />
          </mxGeometry>
        </mxCell>
        <mxCell id="ZLKex6Dz4Ec29k2ysHHN-57" value="1" style="text;html=1;align=center;verticalAlign=middle;whiteSpace=wrap;rounded=0;" vertex="1" parent="1">
          <mxGeometry x="360" y="60" width="40" height="20" as="geometry" />
        </mxCell>
        <mxCell id="ZLKex6Dz4Ec29k2ysHHN-58" value="N" style="text;html=1;align=center;verticalAlign=middle;whiteSpace=wrap;rounded=0;" vertex="1" parent="1">
          <mxGeometry x="445" y="60" width="40" height="20" as="geometry" />
        </mxCell>
        <mxCell id="ZLKex6Dz4Ec29k2ysHHN-59" value="Tipus" style="ellipse;whiteSpace=wrap;html=1;" vertex="1" parent="1">
          <mxGeometry x="405" y="325" width="55" height="30" as="geometry" />
        </mxCell>
        <mxCell id="ZLKex6Dz4Ec29k2ysHHN-60" value="&lt;u&gt;Nom&lt;/u&gt;" style="ellipse;whiteSpace=wrap;html=1;" vertex="1" parent="1">
          <mxGeometry x="625" y="340" width="55" height="30" as="geometry" />
        </mxCell>
        <mxCell id="ZLKex6Dz4Ec29k2ysHHN-61" value="&lt;u&gt;ID&lt;/u&gt;" style="ellipse;whiteSpace=wrap;html=1;" vertex="1" parent="1">
          <mxGeometry x="209" y="380" width="55" height="30" as="geometry" />
        </mxCell>
        <mxCell id="ZLKex6Dz4Ec29k2ysHHN-62" value="Descripcio" style="ellipse;whiteSpace=wrap;html=1;" vertex="1" parent="1">
          <mxGeometry x="120" y="380" width="70" height="30" as="geometry" />
        </mxCell>
        <mxCell id="ZLKex6Dz4Ec29k2ysHHN-63" value="&lt;u&gt;ID&lt;/u&gt;" style="ellipse;whiteSpace=wrap;html=1;" vertex="1" parent="1">
          <mxGeometry x="800" y="370" width="55" height="30" as="geometry" />
        </mxCell>
        <mxCell id="ZLKex6Dz4Ec29k2ysHHN-64" value="Descripcio" style="ellipse;whiteSpace=wrap;html=1;" vertex="1" parent="1">
          <mxGeometry x="880" y="370" width="70" height="30" as="geometry" />
        </mxCell>
        <mxCell id="ZLKex6Dz4Ec29k2ysHHN-65" value="&lt;u&gt;ID&lt;/u&gt;" style="ellipse;whiteSpace=wrap;html=1;" vertex="1" parent="1">
          <mxGeometry x="240" y="670" width="55" height="30" as="geometry" />
        </mxCell>
        <mxCell id="ZLKex6Dz4Ec29k2ysHHN-66" value="Descripcio" style="ellipse;whiteSpace=wrap;html=1;" vertex="1" parent="1">
          <mxGeometry x="151" y="670" width="70" height="30" as="geometry" />
        </mxCell>
        <mxCell id="ZLKex6Dz4Ec29k2ysHHN-67" value="&lt;u&gt;ID&lt;/u&gt;" style="ellipse;whiteSpace=wrap;html=1;" vertex="1" parent="1">
          <mxGeometry x="844.5" y="660" width="55" height="30" as="geometry" />
        </mxCell>
        <mxCell id="ZLKex6Dz4Ec29k2ysHHN-68" value="Descripcio" style="ellipse;whiteSpace=wrap;html=1;" vertex="1" parent="1">
          <mxGeometry x="755.5" y="660" width="70" height="30" as="geometry" />
        </mxCell>
        <mxCell id="ZLKex6Dz4Ec29k2ysHHN-69" value="" style="endArrow=none;html=1;rounded=0;entryX=0.5;entryY=1;entryDx=0;entryDy=0;exitX=0.5;exitY=0;exitDx=0;exitDy=0;" edge="1" parent="1" source="ZLKex6Dz4Ec29k2ysHHN-51" target="ZLKex6Dz4Ec29k2ysHHN-52">
          <mxGeometry width="50" height="50" relative="1" as="geometry">
            <mxPoint x="440" y="40" as="sourcePoint" />
            <mxPoint x="490" y="-10" as="targetPoint" />
          </mxGeometry>
        </mxCell>
        <mxCell id="ZLKex6Dz4Ec29k2ysHHN-70" value="" style="endArrow=none;html=1;rounded=0;entryX=0.5;entryY=1;entryDx=0;entryDy=0;exitX=0.75;exitY=0;exitDx=0;exitDy=0;" edge="1" parent="1" source="ZLKex6Dz4Ec29k2ysHHN-51" target="ZLKex6Dz4Ec29k2ysHHN-53">
          <mxGeometry width="50" height="50" relative="1" as="geometry">
            <mxPoint x="440" y="40" as="sourcePoint" />
            <mxPoint x="490" y="-10" as="targetPoint" />
          </mxGeometry>
        </mxCell>
        <mxCell id="ZLKex6Dz4Ec29k2ysHHN-71" value="" style="endArrow=none;html=1;rounded=0;entryX=0;entryY=0.5;entryDx=0;entryDy=0;exitX=1;exitY=0.25;exitDx=0;exitDy=0;" edge="1" parent="1" source="ZLKex6Dz4Ec29k2ysHHN-2" target="ZLKex6Dz4Ec29k2ysHHN-43">
          <mxGeometry width="50" height="50" relative="1" as="geometry">
            <mxPoint x="440" y="180" as="sourcePoint" />
            <mxPoint x="490" y="130" as="targetPoint" />
          </mxGeometry>
        </mxCell>
        <mxCell id="ZLKex6Dz4Ec29k2ysHHN-72" value="" style="endArrow=none;html=1;rounded=0;entryX=0;entryY=0.5;entryDx=0;entryDy=0;exitX=1;exitY=0.75;exitDx=0;exitDy=0;" edge="1" parent="1" source="ZLKex6Dz4Ec29k2ysHHN-2" target="ZLKex6Dz4Ec29k2ysHHN-44">
          <mxGeometry width="50" height="50" relative="1" as="geometry">
            <mxPoint x="440" y="180" as="sourcePoint" />
            <mxPoint x="490" y="130" as="targetPoint" />
          </mxGeometry>
        </mxCell>
        <mxCell id="ZLKex6Dz4Ec29k2ysHHN-73" value="" style="endArrow=none;html=1;rounded=0;entryX=0;entryY=0.5;entryDx=0;entryDy=0;exitX=1;exitY=0.25;exitDx=0;exitDy=0;" edge="1" parent="1" source="ZLKex6Dz4Ec29k2ysHHN-3" target="ZLKex6Dz4Ec29k2ysHHN-45">
          <mxGeometry width="50" height="50" relative="1" as="geometry">
            <mxPoint x="440" y="180" as="sourcePoint" />
            <mxPoint x="490" y="130" as="targetPoint" />
          </mxGeometry>
        </mxCell>
        <mxCell id="ZLKex6Dz4Ec29k2ysHHN-74" value="Grup" style="ellipse;whiteSpace=wrap;html=1;" vertex="1" parent="1">
          <mxGeometry x="570" y="-20" width="50" height="30" as="geometry" />
        </mxCell>
        <mxCell id="ZLKex6Dz4Ec29k2ysHHN-75" value="" style="endArrow=none;html=1;rounded=0;entryX=0.5;entryY=1;entryDx=0;entryDy=0;exitX=0.75;exitY=0;exitDx=0;exitDy=0;" edge="1" parent="1" source="ZLKex6Dz4Ec29k2ysHHN-2" target="ZLKex6Dz4Ec29k2ysHHN-74">
          <mxGeometry width="50" height="50" relative="1" as="geometry">
            <mxPoint x="440" y="180" as="sourcePoint" />
            <mxPoint x="490" y="130" as="targetPoint" />
          </mxGeometry>
        </mxCell>
        <mxCell id="ZLKex6Dz4Ec29k2ysHHN-76" value="" style="rhombus;whiteSpace=wrap;html=1;" vertex="1" parent="1">
          <mxGeometry x="160" y="40" width="40" height="40" as="geometry" />
        </mxCell>
        <mxCell id="ZLKex6Dz4Ec29k2ysHHN-77" value="" style="endArrow=none;html=1;rounded=0;entryX=1;entryY=0.5;entryDx=0;entryDy=0;exitX=0;exitY=0.25;exitDx=0;exitDy=0;" edge="1" parent="1" source="ZLKex6Dz4Ec29k2ysHHN-3" target="ZLKex6Dz4Ec29k2ysHHN-47">
          <mxGeometry width="50" height="50" relative="1" as="geometry">
            <mxPoint x="440" y="250" as="sourcePoint" />
            <mxPoint x="490" y="200" as="targetPoint" />
          </mxGeometry>
        </mxCell>
        <mxCell id="ZLKex6Dz4Ec29k2ysHHN-78" value="" style="endArrow=none;html=1;rounded=0;entryX=0;entryY=0.5;entryDx=0;entryDy=0;exitX=1;exitY=0.75;exitDx=0;exitDy=0;" edge="1" parent="1" source="ZLKex6Dz4Ec29k2ysHHN-3" target="ZLKex6Dz4Ec29k2ysHHN-46">
          <mxGeometry width="50" height="50" relative="1" as="geometry">
            <mxPoint x="440" y="250" as="sourcePoint" />
            <mxPoint x="490" y="200" as="targetPoint" />
          </mxGeometry>
        </mxCell>
        <mxCell id="ZLKex6Dz4Ec29k2ysHHN-79" value="" style="endArrow=none;html=1;rounded=0;entryX=0;entryY=0.75;entryDx=0;entryDy=0;exitX=1;exitY=0.5;exitDx=0;exitDy=0;" edge="1" parent="1" source="ZLKex6Dz4Ec29k2ysHHN-48" target="ZLKex6Dz4Ec29k2ysHHN-3">
          <mxGeometry width="50" height="50" relative="1" as="geometry">
            <mxPoint x="440" y="320" as="sourcePoint" />
            <mxPoint x="490" y="270" as="targetPoint" />
          </mxGeometry>
        </mxCell>
        <mxCell id="ZLKex6Dz4Ec29k2ysHHN-80" value="" style="endArrow=none;html=1;rounded=0;entryX=0;entryY=1;entryDx=0;entryDy=0;exitX=0.75;exitY=0;exitDx=0;exitDy=0;" edge="1" parent="1" source="ZLKex6Dz4Ec29k2ysHHN-5" target="ZLKex6Dz4Ec29k2ysHHN-60">
          <mxGeometry width="50" height="50" relative="1" as="geometry">
            <mxPoint x="440" y="590" as="sourcePoint" />
            <mxPoint x="490" y="540" as="targetPoint" />
          </mxGeometry>
        </mxCell>
        <mxCell id="ZLKex6Dz4Ec29k2ysHHN-81" value="" style="endArrow=none;html=1;rounded=0;entryX=0.5;entryY=1;entryDx=0;entryDy=0;exitX=0;exitY=0.25;exitDx=0;exitDy=0;" edge="1" parent="1" source="ZLKex6Dz4Ec29k2ysHHN-6" target="ZLKex6Dz4Ec29k2ysHHN-62">
          <mxGeometry width="50" height="50" relative="1" as="geometry">
            <mxPoint x="290" y="480" as="sourcePoint" />
            <mxPoint x="340" y="430" as="targetPoint" />
          </mxGeometry>
        </mxCell>
        <mxCell id="ZLKex6Dz4Ec29k2ysHHN-82" value="" style="endArrow=none;html=1;rounded=0;entryX=0.5;entryY=1;entryDx=0;entryDy=0;exitX=0.5;exitY=0;exitDx=0;exitDy=0;" edge="1" parent="1" source="ZLKex6Dz4Ec29k2ysHHN-6" target="ZLKex6Dz4Ec29k2ysHHN-61">
          <mxGeometry width="50" height="50" relative="1" as="geometry">
            <mxPoint x="290" y="480" as="sourcePoint" />
            <mxPoint x="340" y="430" as="targetPoint" />
          </mxGeometry>
        </mxCell>
        <mxCell id="ZLKex6Dz4Ec29k2ysHHN-83" value="" style="endArrow=none;html=1;rounded=0;entryX=0.5;entryY=1;entryDx=0;entryDy=0;exitX=0.5;exitY=0;exitDx=0;exitDy=0;" edge="1" parent="1" source="ZLKex6Dz4Ec29k2ysHHN-7" target="ZLKex6Dz4Ec29k2ysHHN-63">
          <mxGeometry width="50" height="50" relative="1" as="geometry">
            <mxPoint x="540" y="480" as="sourcePoint" />
            <mxPoint x="590" y="430" as="targetPoint" />
          </mxGeometry>
        </mxCell>
        <mxCell id="ZLKex6Dz4Ec29k2ysHHN-84" value="" style="endArrow=none;html=1;rounded=0;entryX=0;entryY=1;entryDx=0;entryDy=0;exitX=0.75;exitY=0;exitDx=0;exitDy=0;" edge="1" parent="1" source="ZLKex6Dz4Ec29k2ysHHN-7" target="ZLKex6Dz4Ec29k2ysHHN-64">
          <mxGeometry width="50" height="50" relative="1" as="geometry">
            <mxPoint x="540" y="480" as="sourcePoint" />
            <mxPoint x="590" y="430" as="targetPoint" />
          </mxGeometry>
        </mxCell>
        <mxCell id="ZLKex6Dz4Ec29k2ysHHN-85" value="" style="endArrow=none;html=1;rounded=0;entryX=0.5;entryY=0;entryDx=0;entryDy=0;exitX=0.25;exitY=1;exitDx=0;exitDy=0;" edge="1" parent="1" source="ZLKex6Dz4Ec29k2ysHHN-9" target="ZLKex6Dz4Ec29k2ysHHN-66">
          <mxGeometry width="50" height="50" relative="1" as="geometry">
            <mxPoint x="290" y="610" as="sourcePoint" />
            <mxPoint x="340" y="560" as="targetPoint" />
          </mxGeometry>
        </mxCell>
        <mxCell id="ZLKex6Dz4Ec29k2ysHHN-86" value="" style="endArrow=none;html=1;rounded=0;entryX=1;entryY=0.5;entryDx=0;entryDy=0;exitX=0;exitY=0.5;exitDx=0;exitDy=0;" edge="1" parent="1" source="ZLKex6Dz4Ec29k2ysHHN-51" target="ZLKex6Dz4Ec29k2ysHHN-76">
          <mxGeometry width="50" height="50" relative="1" as="geometry">
            <mxPoint x="440" y="40" as="sourcePoint" />
            <mxPoint x="490" y="-10" as="targetPoint" />
          </mxGeometry>
        </mxCell>
        <mxCell id="ZLKex6Dz4Ec29k2ysHHN-87" value="" style="endArrow=none;html=1;rounded=0;entryX=1;entryY=0.5;entryDx=0;entryDy=0;exitX=0;exitY=0.5;exitDx=0;exitDy=0;" edge="1" parent="1" source="ZLKex6Dz4Ec29k2ysHHN-76" target="ZLKex6Dz4Ec29k2ysHHN-1">
          <mxGeometry width="50" height="50" relative="1" as="geometry">
            <mxPoint x="440" y="40" as="sourcePoint" />
            <mxPoint x="490" y="-10" as="targetPoint" />
          </mxGeometry>
        </mxCell>
        <mxCell id="ZLKex6Dz4Ec29k2ysHHN-88" value="" style="endArrow=none;html=1;rounded=0;entryX=0.75;entryY=1;entryDx=0;entryDy=0;exitX=0.5;exitY=0;exitDx=0;exitDy=0;" edge="1" parent="1" source="ZLKex6Dz4Ec29k2ysHHN-65" target="ZLKex6Dz4Ec29k2ysHHN-9">
          <mxGeometry width="50" height="50" relative="1" as="geometry">
            <mxPoint x="200" y="610" as="sourcePoint" />
            <mxPoint x="250" y="560" as="targetPoint" />
          </mxGeometry>
        </mxCell>
        <mxCell id="ZLKex6Dz4Ec29k2ysHHN-89" value="" style="endArrow=none;html=1;rounded=0;entryX=0.75;entryY=1;entryDx=0;entryDy=0;exitX=0.5;exitY=0;exitDx=0;exitDy=0;" edge="1" parent="1" source="ZLKex6Dz4Ec29k2ysHHN-67" target="ZLKex6Dz4Ec29k2ysHHN-10">
          <mxGeometry width="50" height="50" relative="1" as="geometry">
            <mxPoint x="700" y="610" as="sourcePoint" />
            <mxPoint x="750" y="560" as="targetPoint" />
          </mxGeometry>
        </mxCell>
        <mxCell id="ZLKex6Dz4Ec29k2ysHHN-91" value="" style="endArrow=none;html=1;rounded=0;entryX=0.25;entryY=1;entryDx=0;entryDy=0;exitX=0.5;exitY=0;exitDx=0;exitDy=0;" edge="1" parent="1" source="ZLKex6Dz4Ec29k2ysHHN-68" target="ZLKex6Dz4Ec29k2ysHHN-10">
          <mxGeometry width="50" height="50" relative="1" as="geometry">
            <mxPoint x="700" y="610" as="sourcePoint" />
            <mxPoint x="750" y="560" as="targetPoint" />
          </mxGeometry>
        </mxCell>
        <mxCell id="ZLKex6Dz4Ec29k2ysHHN-92" value="&lt;u&gt;Nom&lt;/u&gt;" style="ellipse;whiteSpace=wrap;html=1;" vertex="1" parent="1">
          <mxGeometry x="50" y="-10" width="50" height="30" as="geometry" />
        </mxCell>
        <mxCell id="ZLKex6Dz4Ec29k2ysHHN-93" value="Logo" style="ellipse;whiteSpace=wrap;html=1;" vertex="1" parent="1">
          <mxGeometry x="-30" width="50" height="30" as="geometry" />
        </mxCell>
        <mxCell id="ZLKex6Dz4Ec29k2ysHHN-94" value="" style="endArrow=none;html=1;rounded=0;entryX=0.5;entryY=1;entryDx=0;entryDy=0;exitX=0.5;exitY=0;exitDx=0;exitDy=0;" edge="1" parent="1" source="ZLKex6Dz4Ec29k2ysHHN-1" target="ZLKex6Dz4Ec29k2ysHHN-92">
          <mxGeometry width="50" height="50" relative="1" as="geometry">
            <mxPoint x="250" y="60" as="sourcePoint" />
            <mxPoint x="300" y="10" as="targetPoint" />
          </mxGeometry>
        </mxCell>
        <mxCell id="ZLKex6Dz4Ec29k2ysHHN-95" value="" style="endArrow=none;html=1;rounded=0;entryX=0.5;entryY=1;entryDx=0;entryDy=0;exitX=0;exitY=0.5;exitDx=0;exitDy=0;" edge="1" parent="1" source="ZLKex6Dz4Ec29k2ysHHN-1" target="ZLKex6Dz4Ec29k2ysHHN-93">
          <mxGeometry width="50" height="50" relative="1" as="geometry">
            <mxPoint x="250" y="60" as="sourcePoint" />
            <mxPoint x="300" y="10" as="targetPoint" />
          </mxGeometry>
        </mxCell>
        <mxCell id="ZLKex6Dz4Ec29k2ysHHN-99" value="Historial" style="rounded=0;whiteSpace=wrap;html=1;" vertex="1" parent="1">
          <mxGeometry x="485" y="-120" width="110" height="40" as="geometry" />
        </mxCell>
        <mxCell id="ZLKex6Dz4Ec29k2ysHHN-100" value="" style="rhombus;whiteSpace=wrap;html=1;" vertex="1" parent="1">
          <mxGeometry x="520" y="-50" width="40" height="40" as="geometry" />
        </mxCell>
        <mxCell id="ZLKex6Dz4Ec29k2ysHHN-101" value="" style="endArrow=none;html=1;rounded=0;entryX=0.5;entryY=1;entryDx=0;entryDy=0;exitX=0.5;exitY=0;exitDx=0;exitDy=0;" edge="1" parent="1" source="ZLKex6Dz4Ec29k2ysHHN-100" target="ZLKex6Dz4Ec29k2ysHHN-99">
          <mxGeometry width="50" height="50" relative="1" as="geometry">
            <mxPoint x="440" y="10" as="sourcePoint" />
            <mxPoint x="490" y="-40" as="targetPoint" />
          </mxGeometry>
        </mxCell>
        <mxCell id="ZLKex6Dz4Ec29k2ysHHN-102" value="" style="endArrow=none;html=1;rounded=0;entryX=0.5;entryY=1;entryDx=0;entryDy=0;exitX=0.5;exitY=0;exitDx=0;exitDy=0;" edge="1" parent="1" source="ZLKex6Dz4Ec29k2ysHHN-2" target="ZLKex6Dz4Ec29k2ysHHN-100">
          <mxGeometry width="50" height="50" relative="1" as="geometry">
            <mxPoint x="440" y="10" as="sourcePoint" />
            <mxPoint x="490" y="-40" as="targetPoint" />
          </mxGeometry>
        </mxCell>
        <mxCell id="ZLKex6Dz4Ec29k2ysHHN-103" value="N" style="text;html=1;align=center;verticalAlign=middle;whiteSpace=wrap;rounded=0;" vertex="1" parent="1">
          <mxGeometry x="495" y="10" width="60" height="30" as="geometry" />
        </mxCell>
        <mxCell id="ZLKex6Dz4Ec29k2ysHHN-104" value="M" style="text;html=1;align=center;verticalAlign=middle;whiteSpace=wrap;rounded=0;" vertex="1" parent="1">
          <mxGeometry x="495" y="-80" width="60" height="30" as="geometry" />
        </mxCell>
        <mxCell id="ZLKex6Dz4Ec29k2ysHHN-105" value="" style="endArrow=none;html=1;rounded=0;entryX=0;entryY=0.25;entryDx=0;entryDy=0;exitX=1;exitY=0.5;exitDx=0;exitDy=0;" edge="1" parent="1" source="ZLKex6Dz4Ec29k2ysHHN-50" target="ZLKex6Dz4Ec29k2ysHHN-4">
          <mxGeometry width="50" height="50" relative="1" as="geometry">
            <mxPoint x="260" y="240" as="sourcePoint" />
            <mxPoint x="310" y="190" as="targetPoint" />
          </mxGeometry>
        </mxCell>
        <mxCell id="ZLKex6Dz4Ec29k2ysHHN-106" value="" style="endArrow=none;html=1;rounded=0;entryX=0;entryY=0.75;entryDx=0;entryDy=0;exitX=1;exitY=0;exitDx=0;exitDy=0;" edge="1" parent="1" source="ZLKex6Dz4Ec29k2ysHHN-59" target="ZLKex6Dz4Ec29k2ysHHN-4">
          <mxGeometry width="50" height="50" relative="1" as="geometry">
            <mxPoint x="260" y="240" as="sourcePoint" />
            <mxPoint x="310" y="190" as="targetPoint" />
          </mxGeometry>
        </mxCell>
        <mxCell id="JDL7LSpFNBDPE97cBxDJ-1" value="&lt;u&gt;ID&lt;/u&gt;" style="ellipse;whiteSpace=wrap;html=1;" vertex="1" parent="1">
          <mxGeometry x="450" y="-180" width="40" height="30" as="geometry" />
        </mxCell>
        <mxCell id="JDL7LSpFNBDPE97cBxDJ-2" value="" style="endArrow=none;html=1;rounded=0;entryX=0.5;entryY=1;entryDx=0;entryDy=0;exitX=0.25;exitY=0;exitDx=0;exitDy=0;" edge="1" parent="1" source="ZLKex6Dz4Ec29k2ysHHN-99" target="JDL7LSpFNBDPE97cBxDJ-1">
          <mxGeometry width="50" height="50" relative="1" as="geometry">
            <mxPoint x="280" y="160" as="sourcePoint" />
            <mxPoint x="330" y="110" as="targetPoint" />
          </mxGeometry>
        </mxCell>
        <mxCell id="JDL7LSpFNBDPE97cBxDJ-5" value="" style="rhombus;whiteSpace=wrap;html=1;" vertex="1" parent="1">
          <mxGeometry x="655" y="420" width="30" height="30" as="geometry" />
        </mxCell>
        <mxCell id="JDL7LSpFNBDPE97cBxDJ-6" value="1" style="text;html=1;align=center;verticalAlign=middle;whiteSpace=wrap;rounded=0;" vertex="1" parent="1">
          <mxGeometry x="610" y="410" width="40" height="20" as="geometry" />
        </mxCell>
        <mxCell id="JDL7LSpFNBDPE97cBxDJ-7" value="" style="endArrow=none;html=1;rounded=0;entryX=0;entryY=0.5;entryDx=0;entryDy=0;exitX=1;exitY=0.5;exitDx=0;exitDy=0;" edge="1" parent="1" source="ZLKex6Dz4Ec29k2ysHHN-5" target="JDL7LSpFNBDPE97cBxDJ-5">
          <mxGeometry width="50" height="50" relative="1" as="geometry">
            <mxPoint x="410" y="540" as="sourcePoint" />
            <mxPoint x="460" y="490" as="targetPoint" />
          </mxGeometry>
        </mxCell>
        <mxCell id="JDL7LSpFNBDPE97cBxDJ-8" value="" style="endArrow=none;html=1;rounded=0;entryX=0;entryY=0.5;entryDx=0;entryDy=0;exitX=1;exitY=0.5;exitDx=0;exitDy=0;" edge="1" parent="1" source="JDL7LSpFNBDPE97cBxDJ-5" target="ZLKex6Dz4Ec29k2ysHHN-7">
          <mxGeometry width="50" height="50" relative="1" as="geometry">
            <mxPoint x="410" y="540" as="sourcePoint" />
            <mxPoint x="460" y="490" as="targetPoint" />
          </mxGeometry>
        </mxCell>
        <mxCell id="JDL7LSpFNBDPE97cBxDJ-9" value="N" style="text;html=1;align=center;verticalAlign=middle;whiteSpace=wrap;rounded=0;" vertex="1" parent="1">
          <mxGeometry x="205" y="40" width="40" height="20" as="geometry" />
        </mxCell>
        <mxCell id="JDL7LSpFNBDPE97cBxDJ-10" value="1" style="text;html=1;align=center;verticalAlign=middle;whiteSpace=wrap;rounded=0;" vertex="1" parent="1">
          <mxGeometry x="130" y="40" width="40" height="20" as="geometry" />
        </mxCell>
      </root>
    </mxGraphModel>
  </diagram>
</mxfile>
